<svg width="31" height="46" viewBox="0 0 31 46" fill="none" xmlns="http://www.w3.org/2000/svg">
<path fill-rule="evenodd" clip-rule="evenodd" d="M27.338 9.0801C27.3789 9.05894 27.4153 9.02917 27.4447 8.99266C27.4742 8.95614 27.4962 8.91365 27.5094 8.86784C27.5225 8.82202 27.5266 8.77386 27.5212 8.72634C27.5159 8.67882 27.5013 8.63295 27.4784 8.5916C26.3166 5.64582 24.7591 2.88954 22.8533 0.406515C22.7224 0.235463 22.5436 0.111884 22.3421 0.0532245C22.1406 -0.00543475 21.9266 0.00379702 21.7304 0.079611C21.5342 0.155425 21.3656 0.29398 21.2485 0.475729C21.1315 0.657479 21.0717 0.873232 21.0779 1.0925C21.0779 11.4346 17.434 18.1493 11.2669 23.005C11.2204 23.005 11.2204 23.0538 11.2204 23.1027C11.5495 27.5462 12.3632 31.9355 13.6457 36.1846C13.6545 36.2141 13.6735 36.2392 13.6989 36.255C13.7243 36.2708 13.7543 36.2761 13.7833 36.2701C13.8123 36.264 13.8381 36.247 13.8558 36.2222C13.8735 36.1974 13.8818 36.1666 13.8792 36.1357C13.5542 30.7671 14.6364 25.4075 17.0083 20.6382C19.3803 15.8689 22.9514 11.8717 27.3347 9.0801H27.338ZM29.3003 16.3831C25.3891 18.308 22.0399 21.2955 19.6001 25.0359C17.1602 28.7762 15.7185 33.1331 15.4244 37.6549H15.1443C14.5291 32.3236 15.3759 26.9188 17.5854 22.0746C19.7949 17.2304 23.2755 13.1477 27.6187 10.3055C27.6651 10.2685 27.7194 10.244 27.7768 10.234C27.8343 10.224 27.8932 10.2289 27.9485 10.2482C28.0037 10.2676 28.0536 10.3007 28.0939 10.3449C28.1342 10.389 28.1635 10.4428 28.1795 10.5016C28.7579 12.2751 29.1955 14.0957 29.4879 15.9448C29.5104 15.9856 29.5235 16.0313 29.5259 16.0784C29.5283 16.1254 29.52 16.1724 29.5018 16.2154C29.4835 16.2584 29.4558 16.2963 29.4209 16.326C29.386 16.3556 29.3449 16.3761 29.301 16.3859L29.3003 16.3831ZM10.005 23.8829C10.0516 23.834 10.1454 23.8829 10.192 23.9813C10.5439 28.1064 11.3114 32.1809 12.4816 36.1364C12.5281 36.2341 12.3878 36.3325 12.2947 36.2837C8.89649 33.8586 5.11629 32.0832 1.1287 31.0393C-0.459782 30.696 -0.226282 28.9807 0.941798 28.6373C3.69836 27.4119 7.85649 25.4028 10.0057 23.8829H10.005ZM29.2072 25.1572C29.2701 25.134 29.3377 25.1282 29.4033 25.1404C29.469 25.1525 29.5306 25.1821 29.5822 25.2264C29.6338 25.2706 29.6738 25.3281 29.6981 25.3932C29.7225 25.4583 29.7305 25.5289 29.7214 25.5982C29.5443 27.0162 29.2947 28.4233 28.9738 29.8132C28.9536 29.8825 28.9175 29.9456 28.8687 29.9968C28.8198 30.048 28.7598 30.0859 28.6937 30.107C28.0279 30.2575 27.3724 30.4541 26.7314 30.6953C24.708 31.4751 22.877 32.7209 21.3731 34.341C19.8692 35.9611 18.7307 37.9143 18.0413 40.0569C17.8078 40.0081 17.9009 40.0081 17.6674 39.9592C18.1676 36.6403 19.4998 33.5205 21.5276 30.9196C23.5553 28.3186 26.2057 26.3298 29.2072 25.1572V25.1572ZM27.8988 31.4797C27.9679 31.461 28.0407 31.4625 28.1091 31.484C28.1775 31.5055 28.239 31.5463 28.287 31.6018C28.3349 31.6574 28.3675 31.7256 28.3811 31.7991C28.3948 31.8727 28.389 31.9488 28.3644 32.0191C26.8945 36.7225 24.4718 41.0364 21.2628 44.6648C21.155 44.7902 21.0202 44.8868 20.8696 44.9465C20.7191 45.0063 20.5571 45.0274 20.3972 45.0082C20.2372 44.9891 20.084 44.9301 19.9502 44.8363C19.8164 44.7424 19.7058 44.6164 19.6277 44.4688C19.3005 43.8316 18.8801 43.1945 18.5062 42.6062C18.9307 40.1835 19.9454 37.9173 21.4518 36.0278C22.9581 34.1383 24.9047 32.6898 27.1025 31.823C27.3587 31.6878 27.6242 31.573 27.8968 31.4797H27.8988ZM29.8145 18.0502C29.9083 19.1773 30.0015 20.3531 30.0015 21.5304C30.0015 22.1676 30.0015 22.8047 29.9549 23.4418C29.9549 23.5891 29.8145 23.7356 29.6748 23.834C29.3948 23.9317 29.1141 24.0301 28.8806 24.1278C25.8469 25.2976 23.1456 27.2556 21.0293 29.8186C18.9131 32.3815 17.4511 35.4657 16.78 38.7827C16.6994 38.7903 16.6183 38.7733 16.5466 38.7338C16.6621 34.3531 17.9097 30.0875 20.1561 26.3927C22.4025 22.698 25.5633 19.7127 29.301 17.7558C29.3518 17.7251 29.4093 17.7087 29.468 17.708C29.5266 17.7073 29.5844 17.7224 29.6359 17.7519C29.6874 17.7814 29.7308 17.8242 29.7619 17.8764C29.7931 17.9285 29.811 17.9881 29.8139 18.0496L29.8145 18.0502Z" fill="#F56E28"/>
</svg>
