<svg width="40" height="35" viewBox="0 0 40 35" fill="none" xmlns="http://www.w3.org/2000/svg">
<path d="M39.8798 32.4842L26.8949 21.1224C28.9099 18.843 29.9999 16.0562 29.9999 13.1249C29.9999 9.61621 28.4349 6.32622 25.6049 3.84561C22.7749 1.36499 19.0049 0 14.9999 0C10.995 0 7.22497 1.36937 4.39498 3.84561C1.55999 6.32185 0 9.61621 0 13.1249C0 16.6293 1.56499 19.928 4.39498 22.4043C7.22497 24.8849 10.99 26.2499 14.9999 26.2499C18.3499 26.2499 21.5299 25.2961 24.1349 23.5374L37.1198 34.8948C37.1579 34.9282 37.2031 34.9546 37.2529 34.9727C37.3026 34.9907 37.356 35 37.4098 35C37.4637 35 37.517 34.9907 37.5668 34.9727C37.6166 34.9546 37.6618 34.9282 37.6998 34.8948L39.8798 32.9917C39.9179 32.9584 39.9481 32.9189 39.9688 32.8753C39.9894 32.8318 40 32.7851 40 32.738C40 32.6909 39.9894 32.6442 39.9688 32.6006C39.9481 32.5571 39.9179 32.5176 39.8798 32.4842ZM22.9199 20.0549C20.7999 21.9055 17.9899 22.9249 14.9999 22.9249C12.0099 22.9249 9.19996 21.9055 7.07997 20.0549C4.96498 18.1999 3.79998 15.7412 3.79998 13.1249C3.79998 10.5087 4.96498 8.04559 7.07997 6.19497C9.19996 4.34436 12.0099 3.32499 14.9999 3.32499C17.9899 3.32499 20.8049 4.33998 22.9199 6.19497C25.0349 8.04997 26.1999 10.5087 26.1999 13.1249C26.1999 15.7412 25.0349 18.2043 22.9199 20.0549Z" fill="black"/>
</svg>
